<svg id="Layer_1" data-name="Layer 1" xmlns="http://www.w3.org/2000/svg" viewBox="0 0 1366 768"><defs><style>.cls-1{fill:#1f2f42;}.cls-2{fill:none;}.cls-3{fill:#162330;}.cls-4{fill:#7ca13e;}.cls-5{fill:#121d29;}</style></defs><title>Artboard 1</title><polygon class="cls-1" points="980.55 -68 367.91 831.73 -120 831.73 -120 -68 980.55 -68"/><polygon class="cls-2" points="1550.39 -68 1308.46 -66.83 989.5 384.49 673.62 831.73 673.23 831.73 1308.27 -66.83 980.55 -68 1550.39 -68"/><line class="cls-2" x1="979.94" y1="831.15" x2="1551" y2="49.74"/><polygon class="cls-2" points="1308.88 -67.41 1308.46 -66.83 989.5 384.49 673.42 831.73 673.01 832.32 672.81 832.32 367.91 831.73 673.23 831.73 1308.27 -66.83 980.55 -68 1308.88 -67.41"/><polygon class="cls-3" points="1305.82 -66.83 670.78 831.73 365.46 831.73 978.1 -68 1305.82 -66.83"/><polygon class="cls-4" points="1545.55 50.32 1545.55 831.73 974.49 831.73 1545.55 50.32"/><line class="cls-2" x1="1308.27" y1="-66.83" x2="989.5" y2="384.49"/><polygon class="cls-5" points="1546.72 -68 1546.72 50.32 975.66 831.73 669.95 831.73 985.83 384.49 1304.8 -66.83 1546.72 -68"/></svg>